<mxfile host="app.diagrams.net" modified="2023-05-28T08:52:00.241Z" agent="Mozilla/5.0 (Windows NT 10.0; Win64; x64) AppleWebKit/537.36 (KHTML, like Gecko) Chrome/113.0.0.0 Safari/537.36" etag="RpoIZL_57y9ha9tqBBnj" version="21.3.5" type="device">
  <diagram id="C5RBs43oDa-KdzZeNtuy" name="Page-1">
    <mxGraphModel dx="1434" dy="1933" grid="1" gridSize="10" guides="1" tooltips="1" connect="1" arrows="1" fold="1" page="1" pageScale="1" pageWidth="827" pageHeight="1169" math="0" shadow="0">
      <root>
        <mxCell id="WIyWlLk6GJQsqaUBKTNV-0" />
        <mxCell id="WIyWlLk6GJQsqaUBKTNV-1" parent="WIyWlLk6GJQsqaUBKTNV-0" />
        <mxCell id="_O8FyvoTXhJBE4QnCzFt-1" value="domain" style="verticalAlign=top;align=left;spacingTop=8;spacingLeft=2;spacingRight=12;shape=cube;size=10;direction=south;fontStyle=4;html=1;" parent="WIyWlLk6GJQsqaUBKTNV-1" vertex="1">
          <mxGeometry y="240" width="920" height="560" as="geometry" />
        </mxCell>
        <mxCell id="_O8FyvoTXhJBE4QnCzFt-0" value="service&lt;br&gt;" style="verticalAlign=top;align=left;spacingTop=8;spacingLeft=2;spacingRight=12;shape=cube;size=10;direction=south;fontStyle=4;html=1;" parent="WIyWlLk6GJQsqaUBKTNV-1" vertex="1">
          <mxGeometry x="162.5" y="10" width="385" height="210" as="geometry" />
        </mxCell>
        <mxCell id="E_-NxipzxjNeKCVtUoQY-15" value="" style="edgeStyle=orthogonalEdgeStyle;rounded=0;orthogonalLoop=1;jettySize=auto;html=1;startArrow=diamondThin;startFill=1;targetPerimeterSpacing=0;startSize=10;" parent="WIyWlLk6GJQsqaUBKTNV-1" source="_O8FyvoTXhJBE4QnCzFt-2" target="E_-NxipzxjNeKCVtUoQY-14" edge="1">
          <mxGeometry relative="1" as="geometry" />
        </mxCell>
        <mxCell id="_O8FyvoTXhJBE4QnCzFt-2" value="UserController" style="rounded=0;whiteSpace=wrap;html=1;" parent="WIyWlLk6GJQsqaUBKTNV-1" vertex="1">
          <mxGeometry x="172.5" y="305" width="90" height="60" as="geometry" />
        </mxCell>
        <mxCell id="E_-NxipzxjNeKCVtUoQY-48" value="" style="edgeStyle=orthogonalEdgeStyle;rounded=0;orthogonalLoop=1;jettySize=auto;html=1;" parent="WIyWlLk6GJQsqaUBKTNV-1" source="_O8FyvoTXhJBE4QnCzFt-4" target="E_-NxipzxjNeKCVtUoQY-47" edge="1">
          <mxGeometry relative="1" as="geometry" />
        </mxCell>
        <mxCell id="_O8FyvoTXhJBE4QnCzFt-4" value="StoreController" style="rounded=0;whiteSpace=wrap;html=1;" parent="WIyWlLk6GJQsqaUBKTNV-1" vertex="1">
          <mxGeometry x="630" y="325" width="90" height="60" as="geometry" />
        </mxCell>
        <mxCell id="5g2AMywIhzH6PdGHNNT9-0" value="" style="edgeStyle=orthogonalEdgeStyle;rounded=0;orthogonalLoop=1;jettySize=auto;html=1;" edge="1" parent="WIyWlLk6GJQsqaUBKTNV-1" source="_O8FyvoTXhJBE4QnCzFt-7" target="xN8n6ape0J1Ai9_L97-e-10">
          <mxGeometry relative="1" as="geometry" />
        </mxCell>
        <mxCell id="_O8FyvoTXhJBE4QnCzFt-7" value="Hibernate (ORM)" style="verticalAlign=top;align=left;spacingTop=8;spacingLeft=2;spacingRight=12;shape=cube;size=10;direction=south;fontStyle=4;html=1;" parent="WIyWlLk6GJQsqaUBKTNV-1" vertex="1">
          <mxGeometry x="360" y="880" width="155" height="120" as="geometry" />
        </mxCell>
        <mxCell id="_O8FyvoTXhJBE4QnCzFt-13" value="" style="edgeStyle=orthogonalEdgeStyle;rounded=0;orthogonalLoop=1;jettySize=auto;html=1;dashed=1;" parent="WIyWlLk6GJQsqaUBKTNV-1" source="_O8FyvoTXhJBE4QnCzFt-12" edge="1">
          <mxGeometry relative="1" as="geometry">
            <mxPoint x="355" y="-170" as="targetPoint" />
          </mxGeometry>
        </mxCell>
        <mxCell id="_O8FyvoTXhJBE4QnCzFt-12" value="Front End" style="verticalAlign=top;align=left;spacingTop=8;spacingLeft=2;spacingRight=12;shape=cube;size=10;direction=south;fontStyle=4;html=1;" parent="WIyWlLk6GJQsqaUBKTNV-1" vertex="1">
          <mxGeometry x="257.5" y="-390" width="195" height="150" as="geometry" />
        </mxCell>
        <mxCell id="_O8FyvoTXhJBE4QnCzFt-15" value="" style="edgeStyle=orthogonalEdgeStyle;rounded=0;orthogonalLoop=1;jettySize=auto;html=1;dashed=1;" parent="WIyWlLk6GJQsqaUBKTNV-1" source="_O8FyvoTXhJBE4QnCzFt-14" edge="1">
          <mxGeometry relative="1" as="geometry">
            <Array as="points">
              <mxPoint x="235" y="260" />
              <mxPoint x="218" y="260" />
            </Array>
            <mxPoint x="218" y="310" as="targetPoint" />
          </mxGeometry>
        </mxCell>
        <mxCell id="_O8FyvoTXhJBE4QnCzFt-14" value="UserService" style="rounded=0;whiteSpace=wrap;html=1;" parent="WIyWlLk6GJQsqaUBKTNV-1" vertex="1">
          <mxGeometry x="190" y="140" width="90" height="60" as="geometry" />
        </mxCell>
        <mxCell id="_O8FyvoTXhJBE4QnCzFt-17" value="" style="edgeStyle=orthogonalEdgeStyle;rounded=0;orthogonalLoop=1;jettySize=auto;html=1;dashed=1;entryX=0.5;entryY=0;entryDx=0;entryDy=0;" parent="WIyWlLk6GJQsqaUBKTNV-1" source="_O8FyvoTXhJBE4QnCzFt-16" target="_O8FyvoTXhJBE4QnCzFt-3" edge="1">
          <mxGeometry relative="1" as="geometry">
            <Array as="points">
              <mxPoint x="397" y="260" />
              <mxPoint x="397" y="260" />
            </Array>
          </mxGeometry>
        </mxCell>
        <mxCell id="_O8FyvoTXhJBE4QnCzFt-16" value="TransactionService" style="rounded=0;whiteSpace=wrap;html=1;" parent="WIyWlLk6GJQsqaUBKTNV-1" vertex="1">
          <mxGeometry x="300" y="140" width="110" height="60" as="geometry" />
        </mxCell>
        <mxCell id="_O8FyvoTXhJBE4QnCzFt-19" value="" style="edgeStyle=orthogonalEdgeStyle;rounded=0;orthogonalLoop=1;jettySize=auto;html=1;dashed=1;entryX=0.75;entryY=0;entryDx=0;entryDy=0;" parent="WIyWlLk6GJQsqaUBKTNV-1" source="_O8FyvoTXhJBE4QnCzFt-18" target="_O8FyvoTXhJBE4QnCzFt-4" edge="1">
          <mxGeometry relative="1" as="geometry" />
        </mxCell>
        <mxCell id="_O8FyvoTXhJBE4QnCzFt-18" value="StoreService" style="rounded=0;whiteSpace=wrap;html=1;" parent="WIyWlLk6GJQsqaUBKTNV-1" vertex="1">
          <mxGeometry x="425" y="140" width="90" height="60" as="geometry" />
        </mxCell>
        <mxCell id="0x_ArYl3uCkefVeWp79p-0" value="&lt;b&gt;&lt;u&gt;&lt;font style=&quot;font-size: 38px;&quot;&gt;Architecture Diagram&lt;/font&gt;&lt;/u&gt;&lt;/b&gt;" style="text;html=1;strokeColor=none;fillColor=none;align=center;verticalAlign=middle;whiteSpace=wrap;rounded=0;" parent="WIyWlLk6GJQsqaUBKTNV-1" vertex="1">
          <mxGeometry x="100" y="-480" width="530" height="110" as="geometry" />
        </mxCell>
        <mxCell id="E_-NxipzxjNeKCVtUoQY-1" value="" style="edgeStyle=orthogonalEdgeStyle;rounded=0;orthogonalLoop=1;jettySize=auto;html=1;dashed=1;" parent="WIyWlLk6GJQsqaUBKTNV-1" source="E_-NxipzxjNeKCVtUoQY-0" target="_O8FyvoTXhJBE4QnCzFt-16" edge="1">
          <mxGeometry relative="1" as="geometry" />
        </mxCell>
        <mxCell id="E_-NxipzxjNeKCVtUoQY-0" value="SystemFacade" style="rounded=0;whiteSpace=wrap;html=1;" parent="WIyWlLk6GJQsqaUBKTNV-1" vertex="1">
          <mxGeometry x="300" y="40" width="110" height="60" as="geometry" />
        </mxCell>
        <mxCell id="E_-NxipzxjNeKCVtUoQY-3" value="" style="edgeStyle=orthogonalEdgeStyle;rounded=0;orthogonalLoop=1;jettySize=auto;html=1;dashed=1;exitX=0.5;exitY=1;exitDx=0;exitDy=0;entryX=0.5;entryY=0;entryDx=0;entryDy=0;" parent="WIyWlLk6GJQsqaUBKTNV-1" source="E_-NxipzxjNeKCVtUoQY-0" target="_O8FyvoTXhJBE4QnCzFt-18" edge="1">
          <mxGeometry relative="1" as="geometry">
            <mxPoint x="375" y="120" as="sourcePoint" />
            <mxPoint x="375" y="160" as="targetPoint" />
          </mxGeometry>
        </mxCell>
        <mxCell id="E_-NxipzxjNeKCVtUoQY-4" value="" style="edgeStyle=orthogonalEdgeStyle;rounded=0;orthogonalLoop=1;jettySize=auto;html=1;dashed=1;exitX=0.5;exitY=1;exitDx=0;exitDy=0;entryX=0.5;entryY=0;entryDx=0;entryDy=0;" parent="WIyWlLk6GJQsqaUBKTNV-1" source="E_-NxipzxjNeKCVtUoQY-0" target="_O8FyvoTXhJBE4QnCzFt-14" edge="1">
          <mxGeometry relative="1" as="geometry">
            <mxPoint x="385" y="130" as="sourcePoint" />
            <mxPoint x="385" y="170" as="targetPoint" />
          </mxGeometry>
        </mxCell>
        <mxCell id="E_-NxipzxjNeKCVtUoQY-7" value="User" style="shape=umlFrame;whiteSpace=wrap;html=1;pointerEvents=0;" parent="WIyWlLk6GJQsqaUBKTNV-1" vertex="1">
          <mxGeometry x="10" y="275" width="280" height="410" as="geometry" />
        </mxCell>
        <mxCell id="E_-NxipzxjNeKCVtUoQY-8" value="Transaction" style="shape=umlFrame;whiteSpace=wrap;html=1;pointerEvents=0;width=80;height=30;" parent="WIyWlLk6GJQsqaUBKTNV-1" vertex="1">
          <mxGeometry x="310" y="275" width="280" height="180" as="geometry" />
        </mxCell>
        <mxCell id="E_-NxipzxjNeKCVtUoQY-9" value="Store" style="shape=umlFrame;whiteSpace=wrap;html=1;pointerEvents=0;" parent="WIyWlLk6GJQsqaUBKTNV-1" vertex="1">
          <mxGeometry x="610" y="275" width="280" height="260" as="geometry" />
        </mxCell>
        <mxCell id="E_-NxipzxjNeKCVtUoQY-43" value="" style="edgeStyle=orthogonalEdgeStyle;rounded=0;orthogonalLoop=1;jettySize=auto;html=1;startArrow=diamondThin;startFill=1;startSize=11;" parent="WIyWlLk6GJQsqaUBKTNV-1" source="_O8FyvoTXhJBE4QnCzFt-3" target="E_-NxipzxjNeKCVtUoQY-42" edge="1">
          <mxGeometry relative="1" as="geometry" />
        </mxCell>
        <mxCell id="_O8FyvoTXhJBE4QnCzFt-3" value="TransactionController" style="rounded=0;whiteSpace=wrap;html=1;" parent="WIyWlLk6GJQsqaUBKTNV-1" vertex="1">
          <mxGeometry x="326" y="310" width="142.5" height="55" as="geometry" />
        </mxCell>
        <mxCell id="E_-NxipzxjNeKCVtUoQY-10" value="Market" style="rounded=0;whiteSpace=wrap;html=1;" parent="WIyWlLk6GJQsqaUBKTNV-1" vertex="1">
          <mxGeometry x="410" y="535" width="77.5" height="50" as="geometry" />
        </mxCell>
        <mxCell id="E_-NxipzxjNeKCVtUoQY-11" value="" style="edgeStyle=orthogonalEdgeStyle;rounded=0;orthogonalLoop=1;jettySize=auto;html=1;dashed=1;entryX=0;entryY=0.25;entryDx=0;entryDy=0;exitX=0.75;exitY=1;exitDx=0;exitDy=0;startArrow=classic;startFill=1;" parent="WIyWlLk6GJQsqaUBKTNV-1" source="_O8FyvoTXhJBE4QnCzFt-2" target="E_-NxipzxjNeKCVtUoQY-10" edge="1">
          <mxGeometry relative="1" as="geometry">
            <mxPoint x="228" y="375" as="sourcePoint" />
            <mxPoint x="263" y="755" as="targetPoint" />
          </mxGeometry>
        </mxCell>
        <mxCell id="E_-NxipzxjNeKCVtUoQY-12" value="" style="edgeStyle=orthogonalEdgeStyle;rounded=0;orthogonalLoop=1;jettySize=auto;html=1;dashed=1;entryX=0.5;entryY=0;entryDx=0;entryDy=0;exitX=0.5;exitY=1;exitDx=0;exitDy=0;startArrow=classic;startFill=1;" parent="WIyWlLk6GJQsqaUBKTNV-1" source="_O8FyvoTXhJBE4QnCzFt-3" target="E_-NxipzxjNeKCVtUoQY-10" edge="1">
          <mxGeometry relative="1" as="geometry">
            <mxPoint x="250" y="375" as="sourcePoint" />
            <mxPoint x="463" y="540" as="targetPoint" />
          </mxGeometry>
        </mxCell>
        <mxCell id="E_-NxipzxjNeKCVtUoQY-13" value="" style="edgeStyle=orthogonalEdgeStyle;rounded=0;orthogonalLoop=1;jettySize=auto;html=1;dashed=1;entryX=1;entryY=0.25;entryDx=0;entryDy=0;exitX=0.25;exitY=1;exitDx=0;exitDy=0;startArrow=classic;startFill=1;" parent="WIyWlLk6GJQsqaUBKTNV-1" source="_O8FyvoTXhJBE4QnCzFt-4" target="E_-NxipzxjNeKCVtUoQY-10" edge="1">
          <mxGeometry relative="1" as="geometry">
            <mxPoint x="260" y="385" as="sourcePoint" />
            <mxPoint x="473" y="550" as="targetPoint" />
            <Array as="points">
              <mxPoint x="652" y="508" />
              <mxPoint x="528" y="508" />
            </Array>
          </mxGeometry>
        </mxCell>
        <mxCell id="E_-NxipzxjNeKCVtUoQY-17" value="" style="edgeStyle=orthogonalEdgeStyle;rounded=0;orthogonalLoop=1;jettySize=auto;html=1;endSize=6;" parent="WIyWlLk6GJQsqaUBKTNV-1" source="E_-NxipzxjNeKCVtUoQY-14" target="E_-NxipzxjNeKCVtUoQY-16" edge="1">
          <mxGeometry x="0.75" y="10" relative="1" as="geometry">
            <mxPoint as="offset" />
          </mxGeometry>
        </mxCell>
        <mxCell id="E_-NxipzxjNeKCVtUoQY-14" value="SessionManager" style="html=1;whiteSpace=wrap;" parent="WIyWlLk6GJQsqaUBKTNV-1" vertex="1">
          <mxGeometry x="30" y="315" width="100" height="60" as="geometry" />
        </mxCell>
        <mxCell id="E_-NxipzxjNeKCVtUoQY-19" value="" style="edgeStyle=orthogonalEdgeStyle;rounded=0;orthogonalLoop=1;jettySize=auto;html=1;" parent="WIyWlLk6GJQsqaUBKTNV-1" source="E_-NxipzxjNeKCVtUoQY-16" target="E_-NxipzxjNeKCVtUoQY-18" edge="1">
          <mxGeometry relative="1" as="geometry" />
        </mxCell>
        <mxCell id="E_-NxipzxjNeKCVtUoQY-16" value="User" style="html=1;whiteSpace=wrap;" parent="WIyWlLk6GJQsqaUBKTNV-1" vertex="1">
          <mxGeometry x="30" y="415" width="100" height="60" as="geometry" />
        </mxCell>
        <mxCell id="E_-NxipzxjNeKCVtUoQY-18" value="Cart" style="html=1;whiteSpace=wrap;" parent="WIyWlLk6GJQsqaUBKTNV-1" vertex="1">
          <mxGeometry x="30" y="515" width="100" height="60" as="geometry" />
        </mxCell>
        <mxCell id="E_-NxipzxjNeKCVtUoQY-28" value="MarketLogic" style="shape=umlFrame;whiteSpace=wrap;html=1;pointerEvents=0;width=90;height=30;" parent="WIyWlLk6GJQsqaUBKTNV-1" vertex="1">
          <mxGeometry x="310" y="465" width="280" height="220" as="geometry" />
        </mxCell>
        <mxCell id="E_-NxipzxjNeKCVtUoQY-46" value="" style="edgeStyle=orthogonalEdgeStyle;rounded=0;orthogonalLoop=1;jettySize=auto;html=1;" parent="WIyWlLk6GJQsqaUBKTNV-1" source="E_-NxipzxjNeKCVtUoQY-42" target="E_-NxipzxjNeKCVtUoQY-45" edge="1">
          <mxGeometry x="1" y="9" relative="1" as="geometry">
            <mxPoint as="offset" />
          </mxGeometry>
        </mxCell>
        <mxCell id="E_-NxipzxjNeKCVtUoQY-42" value="History" style="rounded=0;whiteSpace=wrap;html=1;" parent="WIyWlLk6GJQsqaUBKTNV-1" vertex="1">
          <mxGeometry x="495" y="310" width="72.5" height="55" as="geometry" />
        </mxCell>
        <mxCell id="E_-NxipzxjNeKCVtUoQY-45" value="Transaction" style="rounded=0;whiteSpace=wrap;html=1;" parent="WIyWlLk6GJQsqaUBKTNV-1" vertex="1">
          <mxGeometry x="495" y="385" width="72.5" height="55" as="geometry" />
        </mxCell>
        <mxCell id="E_-NxipzxjNeKCVtUoQY-50" value="" style="edgeStyle=orthogonalEdgeStyle;rounded=0;orthogonalLoop=1;jettySize=auto;html=1;" parent="WIyWlLk6GJQsqaUBKTNV-1" source="E_-NxipzxjNeKCVtUoQY-47" target="E_-NxipzxjNeKCVtUoQY-49" edge="1">
          <mxGeometry relative="1" as="geometry" />
        </mxCell>
        <mxCell id="E_-NxipzxjNeKCVtUoQY-47" value="Store" style="rounded=0;whiteSpace=wrap;html=1;" parent="WIyWlLk6GJQsqaUBKTNV-1" vertex="1">
          <mxGeometry x="760" y="325" width="90" height="60" as="geometry" />
        </mxCell>
        <mxCell id="E_-NxipzxjNeKCVtUoQY-49" value="Storage" style="rounded=0;whiteSpace=wrap;html=1;" parent="WIyWlLk6GJQsqaUBKTNV-1" vertex="1">
          <mxGeometry x="690" y="455" width="90" height="60" as="geometry" />
        </mxCell>
        <mxCell id="Gqnm0Ojl_SqZ1mcRrXUV-1" value="Sale" style="rounded=0;whiteSpace=wrap;html=1;" parent="WIyWlLk6GJQsqaUBKTNV-1" vertex="1">
          <mxGeometry x="790" y="455" width="90" height="60" as="geometry" />
        </mxCell>
        <mxCell id="Gqnm0Ojl_SqZ1mcRrXUV-2" value="" style="edgeStyle=orthogonalEdgeStyle;rounded=0;orthogonalLoop=1;jettySize=auto;html=1;exitX=0.5;exitY=1;exitDx=0;exitDy=0;" parent="WIyWlLk6GJQsqaUBKTNV-1" source="E_-NxipzxjNeKCVtUoQY-47" target="Gqnm0Ojl_SqZ1mcRrXUV-1" edge="1">
          <mxGeometry relative="1" as="geometry">
            <mxPoint x="815" y="395" as="sourcePoint" />
            <mxPoint x="745" y="465" as="targetPoint" />
          </mxGeometry>
        </mxCell>
        <mxCell id="xN8n6ape0J1Ai9_L97-e-8" style="edgeStyle=orthogonalEdgeStyle;rounded=0;orthogonalLoop=1;jettySize=auto;html=1;entryX=0;entryY=0;entryDx=0;entryDy=72.5;entryPerimeter=0;dashed=1;" parent="WIyWlLk6GJQsqaUBKTNV-1" target="_O8FyvoTXhJBE4QnCzFt-7" edge="1">
          <mxGeometry relative="1" as="geometry">
            <Array as="points">
              <mxPoint x="443" y="820" />
            </Array>
            <mxPoint x="443" y="800" as="sourcePoint" />
          </mxGeometry>
        </mxCell>
        <mxCell id="_dDPorJDARygQeJ1sty4-0" value="Services" style="shape=umlFrame;whiteSpace=wrap;html=1;pointerEvents=0;" parent="WIyWlLk6GJQsqaUBKTNV-1" vertex="1">
          <mxGeometry x="610" y="545" width="280" height="245" as="geometry" />
        </mxCell>
        <mxCell id="roP2dOlKdSz_2Zbbqgom-5" style="edgeStyle=orthogonalEdgeStyle;rounded=0;orthogonalLoop=1;jettySize=auto;html=1;entryX=1;entryY=0.5;entryDx=0;entryDy=0;dashed=1;startArrow=classic;startFill=1;" parent="WIyWlLk6GJQsqaUBKTNV-1" source="_dDPorJDARygQeJ1sty4-1" target="E_-NxipzxjNeKCVtUoQY-16" edge="1">
          <mxGeometry relative="1" as="geometry">
            <Array as="points">
              <mxPoint x="640" y="590" />
              <mxPoint x="640" y="660" />
              <mxPoint x="160" y="660" />
              <mxPoint x="160" y="445" />
            </Array>
          </mxGeometry>
        </mxCell>
        <mxCell id="_dDPorJDARygQeJ1sty4-1" value="Notification&lt;br&gt;service" style="rounded=0;whiteSpace=wrap;html=1;" parent="WIyWlLk6GJQsqaUBKTNV-1" vertex="1">
          <mxGeometry x="700" y="560" width="90" height="60" as="geometry" />
        </mxCell>
        <mxCell id="_dDPorJDARygQeJ1sty4-2" value="Payment&lt;br&gt;Service" style="rounded=0;whiteSpace=wrap;html=1;" parent="WIyWlLk6GJQsqaUBKTNV-1" vertex="1">
          <mxGeometry x="700" y="637.5" width="90" height="60" as="geometry" />
        </mxCell>
        <mxCell id="_dDPorJDARygQeJ1sty4-3" value="Supply&lt;br&gt;Service" style="rounded=0;whiteSpace=wrap;html=1;" parent="WIyWlLk6GJQsqaUBKTNV-1" vertex="1">
          <mxGeometry x="700" y="720" width="90" height="60" as="geometry" />
        </mxCell>
        <mxCell id="_dDPorJDARygQeJ1sty4-4" value="" style="edgeStyle=orthogonalEdgeStyle;rounded=0;orthogonalLoop=1;jettySize=auto;html=1;dashed=1;entryX=0;entryY=0.5;entryDx=0;entryDy=0;exitX=1;exitY=0.75;exitDx=0;exitDy=0;" parent="WIyWlLk6GJQsqaUBKTNV-1" source="E_-NxipzxjNeKCVtUoQY-10" target="_dDPorJDARygQeJ1sty4-2" edge="1">
          <mxGeometry relative="1" as="geometry">
            <Array as="points">
              <mxPoint x="680" y="532" />
              <mxPoint x="680" y="668" />
            </Array>
            <mxPoint x="490" y="530" as="sourcePoint" />
            <mxPoint x="424" y="900" as="targetPoint" />
          </mxGeometry>
        </mxCell>
        <mxCell id="_dDPorJDARygQeJ1sty4-5" value="" style="edgeStyle=orthogonalEdgeStyle;rounded=0;orthogonalLoop=1;jettySize=auto;html=1;dashed=1;entryX=0;entryY=0.5;entryDx=0;entryDy=0;exitX=1;exitY=1;exitDx=0;exitDy=0;" parent="WIyWlLk6GJQsqaUBKTNV-1" source="E_-NxipzxjNeKCVtUoQY-10" target="_dDPorJDARygQeJ1sty4-3" edge="1">
          <mxGeometry relative="1" as="geometry">
            <Array as="points">
              <mxPoint x="488" y="542" />
              <mxPoint x="690" y="542" />
              <mxPoint x="690" y="750" />
            </Array>
            <mxPoint x="498" y="542" as="sourcePoint" />
            <mxPoint x="710" y="678" as="targetPoint" />
          </mxGeometry>
        </mxCell>
        <mxCell id="_dDPorJDARygQeJ1sty4-6" value="" style="edgeStyle=orthogonalEdgeStyle;rounded=0;orthogonalLoop=1;jettySize=auto;html=1;dashed=1;entryX=1;entryY=0.5;entryDx=0;entryDy=0;exitX=1;exitY=0.75;exitDx=0;exitDy=0;" parent="WIyWlLk6GJQsqaUBKTNV-1" source="E_-NxipzxjNeKCVtUoQY-47" target="_dDPorJDARygQeJ1sty4-1" edge="1">
          <mxGeometry relative="1" as="geometry">
            <Array as="points">
              <mxPoint x="900" y="370" />
              <mxPoint x="900" y="590" />
            </Array>
            <mxPoint x="498" y="555" as="sourcePoint" />
            <mxPoint x="710" y="760" as="targetPoint" />
          </mxGeometry>
        </mxCell>
        <mxCell id="_dDPorJDARygQeJ1sty4-7" value="" style="edgeStyle=orthogonalEdgeStyle;rounded=0;orthogonalLoop=1;jettySize=auto;html=1;dashed=1;entryX=1.004;entryY=0.633;entryDx=0;entryDy=0;exitX=1;exitY=0;exitDx=0;exitDy=0;entryPerimeter=0;" parent="WIyWlLk6GJQsqaUBKTNV-1" source="_O8FyvoTXhJBE4QnCzFt-2" target="_dDPorJDARygQeJ1sty4-1" edge="1">
          <mxGeometry relative="1" as="geometry">
            <Array as="points">
              <mxPoint x="263" y="260" />
              <mxPoint x="910" y="260" />
              <mxPoint x="910" y="598" />
            </Array>
            <mxPoint x="860" y="380" as="sourcePoint" />
            <mxPoint x="800" y="600" as="targetPoint" />
          </mxGeometry>
        </mxCell>
        <mxCell id="xN8n6ape0J1Ai9_L97-e-19" style="edgeStyle=orthogonalEdgeStyle;rounded=0;orthogonalLoop=1;jettySize=auto;html=1;exitX=0.5;exitY=1;exitDx=0;exitDy=0;entryX=0.5;entryY=0;entryDx=0;entryDy=0;dashed=1;" parent="WIyWlLk6GJQsqaUBKTNV-1" source="xN8n6ape0J1Ai9_L97-e-0" target="xN8n6ape0J1Ai9_L97-e-18" edge="1">
          <mxGeometry relative="1" as="geometry" />
        </mxCell>
        <mxCell id="xN8n6ape0J1Ai9_L97-e-0" value="UI" style="rounded=0;whiteSpace=wrap;html=1;" parent="WIyWlLk6GJQsqaUBKTNV-1" vertex="1">
          <mxGeometry x="305" y="-360" width="100" height="40" as="geometry" />
        </mxCell>
        <mxCell id="xN8n6ape0J1Ai9_L97-e-1" value="Communication Layer" style="verticalAlign=top;align=left;spacingTop=8;spacingLeft=2;spacingRight=12;shape=cube;size=10;direction=south;fontStyle=4;html=1;" parent="WIyWlLk6GJQsqaUBKTNV-1" vertex="1">
          <mxGeometry x="277.5" y="-170" width="160" height="110" as="geometry" />
        </mxCell>
        <mxCell id="xN8n6ape0J1Ai9_L97-e-2" value="communication" style="rounded=0;whiteSpace=wrap;html=1;" parent="WIyWlLk6GJQsqaUBKTNV-1" vertex="1">
          <mxGeometry x="300" y="-130" width="110" height="60" as="geometry" />
        </mxCell>
        <mxCell id="xN8n6ape0J1Ai9_L97-e-4" value="" style="edgeStyle=orthogonalEdgeStyle;rounded=0;orthogonalLoop=1;jettySize=auto;html=1;dashed=1;entryX=0;entryY=0;entryDx=0;entryDy=187.5;entryPerimeter=0;exitX=1.018;exitY=0.484;exitDx=0;exitDy=0;exitPerimeter=0;" parent="WIyWlLk6GJQsqaUBKTNV-1" source="xN8n6ape0J1Ai9_L97-e-1" target="_O8FyvoTXhJBE4QnCzFt-0" edge="1">
          <mxGeometry relative="1" as="geometry">
            <mxPoint x="365" y="-230" as="sourcePoint" />
            <mxPoint x="365" y="-160" as="targetPoint" />
          </mxGeometry>
        </mxCell>
        <mxCell id="xN8n6ape0J1Ai9_L97-e-10" value="DB" style="shape=image;html=1;verticalAlign=top;verticalLabelPosition=bottom;labelBackgroundColor=#ffffff;imageAspect=0;aspect=fixed;image=https://cdn1.iconfinder.com/data/icons/unicons-line-vol-2/24/database-128.png" parent="WIyWlLk6GJQsqaUBKTNV-1" vertex="1">
          <mxGeometry x="398.5" y="1060" width="78" height="78" as="geometry" />
        </mxCell>
        <mxCell id="xN8n6ape0J1Ai9_L97-e-18" value="FEController" style="rounded=0;whiteSpace=wrap;html=1;" parent="WIyWlLk6GJQsqaUBKTNV-1" vertex="1">
          <mxGeometry x="305" y="-290" width="100" height="40" as="geometry" />
        </mxCell>
      </root>
    </mxGraphModel>
  </diagram>
</mxfile>
